<svg width="29" height="28" fill="none" xmlns="http://www.w3.org/2000/svg"><g clip-path="url(#clip0_6_299)"><path d="M4.817 28h9.242v-9.953h-3.32v-3.281h3.32v-4.102c0-2.262 1.862-4.101 4.15-4.101h4.15v3.28h-3.32c-.915 0-1.66.737-1.66 1.641v3.282h4.83l-.553 3.28H17.38V28h7.47c2.29 0 4.15-1.84 4.15-4.102V4.102C29 1.84 27.138 0 24.85 0H4.817C2.53 0 .667 1.84.667 4.102v19.796C.667 26.16 2.529 28 4.817 28zM2.327 4.102c0-1.357 1.117-2.461 2.49-2.461H24.85c1.373 0 2.49 1.104 2.49 2.46v19.797c0 1.357-1.117 2.461-2.49 2.461h-5.81v-6.672h4.023l1.106-6.562h-5.13v-1.64h4.98V4.921h-5.81c-3.204 0-5.81 2.576-5.81 5.742v2.461h-3.32v6.563h3.32v6.671H4.817c-1.373 0-2.49-1.104-2.49-2.46V4.101z" fill="#fff"/></g><defs><clipPath id="clip0_6_299"><path fill="#fff" transform="translate(.667)" d="M0 0h28.333v28H0z"/></clipPath></defs></svg>