<svg width="29" height="28" fill="none" xmlns="http://www.w3.org/2000/svg"><path d="M5.608 28h17.118c3.091 0 5.607-2.486 5.607-5.542V5.542C28.333 2.486 25.818 0 22.726 0H5.608C2.516 0 0 2.486 0 5.542v16.916C0 25.514 2.516 28 5.608 28zM1.77 5.542c0-2.091 1.721-3.792 3.837-3.792h17.118c2.115 0 3.837 1.701 3.837 3.792v16.916c0 2.091-1.722 3.792-3.837 3.792H5.608c-2.116 0-3.837-1.701-3.837-3.792V5.542z" fill="#fff"/><path d="M14.167 21.152c3.99 0 7.237-3.209 7.237-7.152s-3.246-7.152-7.237-7.152c-3.99 0-7.236 3.209-7.236 7.152s3.246 7.152 7.236 7.152zm0-12.554c3.014 0 5.466 2.424 5.466 5.402 0 2.979-2.452 5.402-5.466 5.402-3.014 0-5.466-2.423-5.466-5.402 0-2.978 2.452-5.402 5.466-5.402zm7.506-.009c1.164 0 2.041-.863 2.041-2.008 0-1.193-.923-2.008-2.04-2.008-1.164 0-2.04.864-2.04 2.008 0 1.191.918 2.008 2.04 2.008zm.21-2.2c.372.325-.479.72-.479.193 0-.315.433-.233.478-.193z" fill="#fff"/></svg>