<svg width="24" height="24" fill="none" xmlns="http://www.w3.org/2000/svg"><path d="M12 0C5.371 0 0 5.373 0 12c0 6.629 5.371 12 12 12 6.626 0 12-5.371 12-12 0-6.627-5.374-12-12-12zm7.177 7.028l.017.003-6.697 6.698a.61.61 0 01-.841-.002l-6.7-6.699h14.221zm-14.688.449c0-.005.003-.008.003-.008l4.551 4.549-4.554 4.554V7.477zm.448 9.621c-.02 0-.039-.01-.059-.013l4.616-4.615 1.709 1.709c.231.233.543.36.874.36.328 0 .64-.127.871-.36l1.653-1.654 4.572 4.573H4.937zm14.689-.452l-4.572-4.572 4.572-4.572v9.144z" fill="#fff"/></svg>