<svg width="24" height="24" fill="none" xmlns="http://www.w3.org/2000/svg"><path d="M12 0C5.373 0 0 5.373 0 12s5.373 12 12 12 12-5.373 12-12S18.627 0 12 0zm3.227 18.184c-1.59-.098-4.717-1.924-6.174-3.564C7.6 12.979 6.157 9.657 6.252 8.064c0 0 1.732-2.291 2.527-2.245.801.048 3.043 2.576 2.195 3.328-.84.747-1.637.701-1.684 1.494-.045.795.701 1.641 1.445 2.483.752.846 1.498 1.685 2.295 1.73.795.05.844-.743 1.684-1.495.844-.748 3.09 1.784 3.041 2.579-.044.792-2.528 2.246-2.528 2.246z" fill="#fff"/></svg>